<?xml version="1.0" standalone="no"?>
<!DOCTYPE svg PUBLIC "-//W3C//DTD SVG 20010904//EN"
 "http://www.w3.org/TR/2001/REC-SVG-20010904/DTD/svg10.dtd">
<svg version="1.0" xmlns="http://www.w3.org/2000/svg"
 width="500.000000pt" height="500.000000pt" viewBox="0 0 500.000000 500.000000"
 preserveAspectRatio="xMidYMid meet">
<metadata>
Created by potrace 1.11, written by Peter Selinger 2001-2013
</metadata>
<g transform="translate(0.000000,500.000000) scale(0.100000,-0.100000)"
fill="#000000" stroke="none">
<path d="M2127 4109 c-87 -4 -177 -9 -200 -12 -23 -3 -97 -14 -164 -23 l-123
-18 0 -1555 0 -1556 23 -40 c57 -101 205 -114 280 -26 14 17 31 48 37 69 6 25
10 499 10 1418 l0 1381 60 7 c105 12 450 7 570 -8 217 -28 381 -74 486 -137
79 -48 186 -164 229 -249 48 -95 65 -167 65 -273 0 -318 -161 -545 -460 -648
-58 -19 -285 -44 -299 -32 -3 2 30 39 73 82 64 65 78 84 82 117 6 49 -22 98
-70 120 -68 33 -81 24 -326 -221 l-225 -225 0 -50 0 -50 225 -225 c245 -245
258 -254 326 -221 48 22 76 71 70 120 -4 32 -17 52 -81 116 -89 90 -89 90 57
90 141 0 284 38 437 115 346 174 541 502 541 910 0 262 -94 488 -280 676 -117
119 -219 181 -396 242 -249 86 -562 121 -947 106z"/>
</g>
</svg>
