<?xml version="1.0" encoding="UTF-8"?>
<svg width="416px" height="126px" viewBox="0 0 416 126" version="1.1" xmlns="http://www.w3.org/2000/svg" xmlns:xlink="http://www.w3.org/1999/xlink">
    <!-- Generator: Sketch 46.2 (44496) - http://www.bohemiancoding.com/sketch -->
    <title>logo (svg)</title>
    <desc>Created with Sketch.</desc>
    <defs></defs>
    <g id="Logo" stroke="none" stroke-width="1" fill="none" fill-rule="evenodd">
        <g id="logo-(svg)">
            <path d="M15.16,93.449 C15.16,92.261 16.024,91.748 17.293,91.694 C17.968,91.667 18.697,91.64 19.642,91.64 C20.236,91.64 20.911,91.64 21.667,91.667 C25.285,91.802 27.823,93.854 27.823,97.391 C27.823,99.875 26.365,101.819 24.259,102.521 C25.528,104.303 26.824,106.031 28.093,107.732 C28.336,108.056 28.498,108.353 28.498,108.731 C28.498,109.487 27.769,110.108 26.932,110.108 C26.311,110.135 26.014,109.811 25.636,109.352 C24.34,107.435 22.99,105.383 21.478,103.277 L18.13,103.277 C18.13,104.735 18.157,107.192 18.157,108.488 C18.157,109.325 17.914,110.027 16.888,110.081 C15.592,110.108 15.16,109.676 15.187,108.461 C15.268,103.277 15.214,101.36 15.214,96.176 C15.214,95.312 15.16,94.313 15.16,93.449 Z M21.019,94.205 C20.29,94.205 18.805,94.232 18.103,94.259 L18.13,100.739 L20.83,100.739 C23.044,100.739 24.826,99.848 24.853,97.418 C24.88,95.339 23.449,94.205 21.019,94.205 Z M33.188,93.044 C33.188,95.258 33.161,97.418 33.161,99.605 C33.161,103.898 33.053,107.219 33.053,107.354 L33.053,108.353 C33.134,109.838 33.701,110.054 35.915,110.054 C39.155,110.054 41.369,110.108 43.178,110.054 C44.42,110.027 44.69,109.352 44.69,108.623 C44.69,107.813 44.339,107.3 43.502,107.3 C43.07,107.3 42.719,107.327 42.179,107.354 C39.425,107.381 37.319,107.408 36.023,107.381 C36.023,106.274 36.05,105.059 36.05,103.952 C36.05,103.385 36.05,102.764 36.077,102.224 C37.157,102.224 40.64,102.197 41.828,102.197 C42.908,102.197 43.232,101.657 43.232,100.928 C43.259,99.794 42.611,99.632 41.585,99.632 C40.559,99.659 38.021,99.713 37.211,99.713 L36.131,99.713 L36.131,99.362 L36.158,96.824 L36.158,94.232 L37.346,94.232 C39.56,94.232 42.395,94.259 43.583,94.205 C44.285,94.043 44.447,93.395 44.42,92.855 C44.42,92.153 43.988,91.64 42.962,91.64 C41.639,91.64 39.668,91.694 36.293,91.694 C35.888,91.667 35.402,91.667 35.105,91.667 C33.998,91.667 33.242,92.018 33.188,93.044 Z M47.6520001,108.704 C47.6520001,108.218 47.8140001,107.786 48.1110001,107.165 C49.3800001,104.276 50.5410001,101.522 50.7840001,100.955 C51.2700001,99.713 52.2420001,97.391 54.1050001,92.666 C54.3750001,91.991 55.0770001,91.613 55.7790001,91.613 C56.8320001,91.613 57.3180001,91.991 57.5880001,92.72 C58.4250001,94.691 59.9370001,98.714 61.1520001,101.738 C61.2600001,101.981 61.4220001,102.305 61.5300001,102.575 C62.5290001,105.086 63.1230001,106.517 63.7440001,107.921 C63.8790001,108.218 63.9870001,108.515 63.9870001,108.893 C63.9870001,109.46 63.2850001,110.135 62.3400001,110.135 C61.5300001,110.135 61.1790001,109.838 60.8550001,109.082 C60.0180001,106.949 59.5050001,105.626 59.4510001,105.383 C58.5060001,105.356 56.7240001,105.356 54.7800001,105.356 L52.1340001,105.356 C51.8910001,105.923 51.2430001,107.732 50.7840001,108.866 C50.4870001,109.595 50.1900001,110.108 49.3800001,110.108 C48.5700001,110.108 47.6520001,109.73 47.6520001,108.704 Z M55.8330001,95.258 C55.1580001,97.256 53.9160001,100.469 52.9710001,102.98 C54.2670001,102.98 56.3460001,102.98 58.5600001,102.926 C58.0470001,101.495 56.3730001,96.824 55.8330001,95.258 Z M68.2450001,92.963 C68.2450001,94.826 68.2720001,98.174 68.2720001,100.631 C68.2450001,102.899 68.1370001,105.194 68.1370001,107.273 L68.1370001,108.299 C68.2720001,109.784 68.8660001,110.108 70.8910001,110.027 C71.9980001,109.973 73.3210001,109.973 74.6980001,109.973 L77.7760001,110 C78.7750001,110 79.1800001,109.352 79.1800001,108.461 C79.1800001,107.732 78.8290001,107.192 77.8570001,107.192 L73.9960001,107.327 C73.3480001,107.354 71.8900001,107.354 71.1340001,107.354 C71.1340001,107.084 71.1610001,106.652 71.1610001,103.709 C71.1610001,102.062 71.1880001,100.334 71.1880001,98.66 C71.2150001,96.689 71.2690001,94.745 71.2690001,92.963 C71.2420001,91.91 70.6480001,91.586 69.8650001,91.586 C69.0010001,91.586 68.2720001,92.045 68.2450001,92.963 Z M90.8550002,93.044 C90.8550002,95.258 90.8280002,97.418 90.8280002,99.605 C90.8280002,103.898 90.7200002,107.219 90.7200002,107.354 L90.7200002,108.353 C90.8010002,109.838 91.3680002,110.054 93.5820002,110.054 C96.8220002,110.054 99.0360002,110.108 100.845,110.054 C102.087,110.027 102.357,109.352 102.357,108.623 C102.357,107.813 102.006,107.3 101.169,107.3 C100.737,107.3 100.386,107.327 99.8460002,107.354 C97.0920002,107.381 94.9860002,107.408 93.6900002,107.381 C93.6900002,106.274 93.7170002,105.059 93.7170002,103.952 C93.7170002,103.385 93.7170002,102.764 93.7440002,102.224 C94.8240002,102.224 98.3070002,102.197 99.4950002,102.197 C100.575,102.197 100.899,101.657 100.899,100.928 C100.926,99.794 100.278,99.632 99.2520002,99.632 C98.2260002,99.659 95.6880002,99.713 94.8780002,99.713 L93.7980002,99.713 L93.7980002,99.362 L93.8250002,96.824 L93.8250002,94.232 L95.0130002,94.232 C97.2270002,94.232 100.062,94.259 101.25,94.205 C101.952,94.043 102.114,93.395 102.087,92.855 C102.087,92.153 101.655,91.64 100.629,91.64 C99.3060002,91.64 97.3350002,91.694 93.9600002,91.694 C93.5550002,91.667 93.0690002,91.667 92.7720002,91.667 C91.6650002,91.667 90.9090002,92.018 90.8550002,93.044 Z M117.415,92.423 C116.173,91.829 114.553,91.451 112.771,91.451 C109.369,91.451 106.291,93.827 106.291,97.067 C106.291,100.172 109.045,101.252 112.096,101.873 C114.094,102.278 115.849,102.899 115.849,104.627 C115.849,106.355 114.31,107.408 112.285,107.408 C110.746,107.408 109.531,106.895 108.613,106.436 C108.235,106.301 107.857,106.139 107.398,106.139 C106.642,106.139 106.075,106.868 106.075,107.651 C106.075,108.299 106.426,108.758 107.182,109.136 C108.289,109.676 110.206,110.216 112.312,110.216 C116.119,110.189 118.873,108.002 118.873,104.519 C118.873,101.117 116.254,100.01 112.987,99.308 C111.07,98.876 109.315,98.525 109.315,96.878 C109.315,95.312 110.854,94.151 112.69,94.151 C113.959,94.151 114.958,94.448 115.714,94.799 C116.065,94.934 116.605,95.15 117.01,95.15 C117.766,95.15 118.306,94.367 118.306,93.773 C118.306,93.125 117.982,92.693 117.415,92.423 Z M128.963,91.694 C124.319,91.694 123.374,91.667 122.672,91.667 C121.727,91.694 121.349,92.288 121.349,92.99 C121.349,93.827 121.727,94.367 122.618,94.367 C124.886,94.367 126.263,94.367 127.316,94.34 C127.343,95.933 127.37,97.121 127.37,98.687 L127.316,108.623 C127.289,109.73 127.829,110.108 128.72,110.108 C129.773,110.108 130.34,109.595 130.34,108.515 C130.259,100.901 130.232,98.363 130.232,95.69 L130.232,94.34 L134.714,94.34 C135.767,94.34 136.145,93.827 136.145,92.882 C136.145,92.045 135.686,91.64 134.795,91.64 C133.607,91.64 129.908,91.694 128.963,91.694 Z M136.623,108.704 C136.623,108.218 136.785,107.786 137.082,107.165 C138.351,104.276 139.512,101.522 139.755,100.955 C140.241,99.713 141.213,97.391 143.076,92.666 C143.346,91.991 144.048,91.613 144.75,91.613 C145.803,91.613 146.289,91.991 146.559,92.72 C147.396,94.691 148.908,98.714 150.123,101.738 C150.231,101.981 150.393,102.305 150.501,102.575 C151.5,105.086 152.094,106.517 152.715,107.921 C152.85,108.218 152.958,108.515 152.958,108.893 C152.958,109.46 152.256,110.135 151.311,110.135 C150.501,110.135 150.15,109.838 149.826,109.082 C148.989,106.949 148.476,105.626 148.422,105.383 C147.477,105.356 145.695,105.356 143.751,105.356 L141.105,105.356 C140.862,105.923 140.214,107.732 139.755,108.866 C139.458,109.595 139.161,110.108 138.351,110.108 C137.541,110.108 136.623,109.73 136.623,108.704 Z M144.804,95.258 C144.129,97.256 142.887,100.469 141.942,102.98 C143.238,102.98 145.317,102.98 147.531,102.926 C147.018,101.495 145.344,96.824 144.804,95.258 Z M161.104,91.694 C156.46,91.694 155.515,91.667 154.813,91.667 C153.868,91.694 153.49,92.288 153.49,92.99 C153.49,93.827 153.868,94.367 154.759,94.367 C157.027,94.367 158.404,94.367 159.457,94.34 C159.484,95.933 159.511,97.121 159.511,98.687 L159.457,108.623 C159.43,109.73 159.97,110.108 160.861,110.108 C161.914,110.108 162.481,109.595 162.481,108.515 C162.4,100.901 162.373,98.363 162.373,95.69 L162.373,94.34 L166.855,94.34 C167.908,94.34 168.286,93.827 168.286,92.882 C168.286,92.045 167.827,91.64 166.936,91.64 C165.748,91.64 162.049,91.694 161.104,91.694 Z M172.382,93.044 C172.382,95.258 172.355,97.418 172.355,99.605 C172.355,103.898 172.247,107.219 172.247,107.354 L172.247,108.353 C172.328,109.838 172.895,110.054 175.109,110.054 C178.349,110.054 180.563,110.108 182.372,110.054 C183.614,110.027 183.884,109.352 183.884,108.623 C183.884,107.813 183.533,107.3 182.696,107.3 C182.264,107.3 181.913,107.327 181.373,107.354 C178.619,107.381 176.513,107.408 175.217,107.381 C175.217,106.274 175.244,105.059 175.244,103.952 C175.244,103.385 175.244,102.764 175.271,102.224 C176.351,102.224 179.834,102.197 181.022,102.197 C182.102,102.197 182.426,101.657 182.426,100.928 C182.453,99.794 181.805,99.632 180.779,99.632 C179.753,99.659 177.215,99.713 176.405,99.713 L175.325,99.713 L175.325,99.362 L175.352,96.824 L175.352,94.232 L176.54,94.232 C178.754,94.232 181.589,94.259 182.777,94.205 C183.479,94.043 183.641,93.395 183.614,92.855 C183.614,92.153 183.182,91.64 182.156,91.64 C180.833,91.64 178.862,91.694 175.487,91.694 C175.082,91.667 174.596,91.667 174.299,91.667 C173.192,91.667 172.436,92.018 172.382,93.044 Z M196.477001,98.606 C196.477001,97.769 196.450001,96.176 196.423001,95.366 C196.423001,94.556 196.342001,93.611 196.477001,92.882 C196.666001,92.18 197.233001,91.748 198.043001,91.694 C198.880001,91.613 200.743001,91.613 202.201001,91.586 C203.929001,91.586 205.576001,91.964 206.845001,92.801 C208.357001,93.8 209.248001,95.366 209.221001,97.661 C209.167001,100.226 207.439001,102.791 204.793001,103.412 C203.875001,103.655 201.634001,103.655 200.311001,103.655 L199.447001,103.655 C199.447001,105.302 199.501001,106.895 199.501001,108.812 C199.501001,109.784 198.799001,110.162 197.935001,110.162 C196.963001,110.162 196.423001,109.676 196.423001,108.92 C196.450001,105.518 196.450001,102.305 196.477001,98.606 Z M199.474001,98.714 C199.474001,99.443 199.501001,100.172 199.501001,100.955 L200.797001,100.955 C202.174001,100.982 203.227001,100.955 203.956001,100.766 C205.441001,100.415 206.251001,98.903 206.278001,97.499 C206.305001,96.095 205.630001,95.231 204.766001,94.772 C203.983001,94.367 203.119001,94.259 202.039001,94.259 C201.472001,94.259 200.014001,94.259 199.447001,94.286 C199.447001,95.312 199.474001,96.986 199.474001,98.714 Z M228.086001,100.982 C228.113001,97.445 228.113001,96.014 228.113001,93.017 C228.113001,92.045 227.573001,91.559 226.628001,91.559 C225.710001,91.559 225.116001,91.964 225.089001,93.044 C225.089001,94.664 225.116001,97.526 225.116001,99.794 L223.739001,99.821 C222.281001,99.821 220.526001,99.848 219.095001,99.848 C217.529001,99.848 216.881001,99.821 216.503001,99.821 C216.476001,95.528 216.503001,94.475 216.476001,92.801 C216.476001,91.991 215.828001,91.64 215.018001,91.64 C213.992001,91.64 213.425001,92.072 213.425001,93.017 L213.533001,99.2 C213.587001,102.413 213.479001,105.653 213.479001,108.866 C213.479001,109.784 214.127001,110.135 214.964001,110.135 C215.828001,110.135 216.557001,109.784 216.557001,108.893 L216.503001,102.575 C219.419001,102.575 222.335001,102.521 225.089001,102.521 L225.116001,106.544 L225.116001,108.812 C225.116001,109.703 225.737001,110.135 226.628001,110.135 C227.627001,110.135 228.194001,109.757 228.194001,108.812 L228.086001,100.982 Z M241.875001,91.478 C246.627001,91.478 250.758001,95.231 250.758001,100.631 C250.758001,105.977 246.978001,110.27 241.794001,110.27 C237.339001,110.27 232.965001,106.841 232.965001,101.279 C232.965001,95.204 237.474001,91.424 241.875001,91.478 Z M247.761001,100.685 C247.734001,96.77 244.818001,94.232 241.632001,94.232 C238.581001,94.232 235.962001,97.067 235.962001,101.009 C235.962001,104.897 238.662001,107.435 241.956001,107.435 C245.223001,107.435 247.788001,104.249 247.761001,100.685 Z M261.010001,91.694 C256.366001,91.694 255.421001,91.667 254.719001,91.667 C253.774001,91.694 253.396001,92.288 253.396001,92.99 C253.396001,93.827 253.774001,94.367 254.665001,94.367 C256.933001,94.367 258.310001,94.367 259.363001,94.34 C259.390001,95.933 259.417001,97.121 259.417001,98.687 L259.363001,108.623 C259.336001,109.73 259.876001,110.108 260.767001,110.108 C261.820001,110.108 262.387001,109.595 262.387001,108.515 C262.306001,100.901 262.279001,98.363 262.279001,95.69 L262.279001,94.34 L266.761001,94.34 C267.814001,94.34 268.192001,93.827 268.192001,92.882 C268.192001,92.045 267.733001,91.64 266.842001,91.64 C265.654001,91.64 261.955001,91.694 261.010001,91.694 Z M279.848001,91.478 C284.600001,91.478 288.731001,95.231 288.731001,100.631 C288.731001,105.977 284.951001,110.27 279.767001,110.27 C275.312001,110.27 270.938001,106.841 270.938001,101.279 C270.938001,95.204 275.447001,91.424 279.848001,91.478 Z M285.734001,100.685 C285.707001,96.77 282.791001,94.232 279.605001,94.232 C276.554001,94.232 273.935001,97.067 273.935001,101.009 C273.935001,104.897 276.635001,107.435 279.929001,107.435 C283.196001,107.435 285.761001,104.249 285.734001,100.685 Z M301.764001,91.451 C296.904001,91.451 292.557001,95.474 292.557001,100.847 C292.557001,106.436 296.337001,110.216 301.332001,110.216 C306.354001,110.216 309.486001,106.733 309.513001,101.981 C309.513001,100.712 309.189001,99.929 307.785001,99.929 L303.573001,99.929 C302.682001,99.956 302.304001,100.496 302.304001,101.198 C302.304001,101.9 302.709001,102.467 303.492001,102.494 L306.543001,102.494 C306.489001,104.978 304.707001,107.462 301.629001,107.462 C298.011001,107.462 295.554001,104.924 295.554001,100.658 C295.554001,96.986 298.605001,94.097 301.656001,94.097 C303.303001,94.097 304.410001,94.556 305.220001,95.042 C305.598001,95.258 306.138001,95.555 306.651001,95.555 C307.407001,95.555 307.893001,94.799 307.893001,94.124 C307.893001,93.557 307.542001,93.206 306.948001,92.855 C305.733001,92.099 303.978001,91.451 301.764001,91.451 Z M314.149001,93.449 C314.149001,92.261 315.013001,91.748 316.282001,91.694 C316.957001,91.667 317.686001,91.64 318.631001,91.64 C319.225001,91.64 319.900001,91.64 320.656001,91.667 C324.274001,91.802 326.812001,93.854 326.812001,97.391 C326.812001,99.875 325.354001,101.819 323.248001,102.521 C324.517001,104.303 325.813001,106.031 327.082001,107.732 C327.325001,108.056 327.487001,108.353 327.487001,108.731 C327.487001,109.487 326.758001,110.108 325.921001,110.108 C325.300001,110.135 325.003001,109.811 324.625001,109.352 C323.329001,107.435 321.979001,105.383 320.467001,103.277 L317.119001,103.277 C317.119001,104.735 317.146001,107.192 317.146001,108.488 C317.146001,109.325 316.903001,110.027 315.877001,110.081 C314.581001,110.108 314.149001,109.676 314.176001,108.461 C314.257001,103.277 314.203001,101.36 314.203001,96.176 C314.203001,95.312 314.149001,94.313 314.149001,93.449 Z M320.008001,94.205 C319.279001,94.205 317.794001,94.232 317.092001,94.259 L317.119001,100.739 L319.819001,100.739 C322.033001,100.739 323.815001,99.848 323.842001,97.418 C323.869001,95.339 322.438001,94.205 320.008001,94.205 Z M330.719001,108.704 C330.719001,108.218 330.881001,107.786 331.178001,107.165 C332.447001,104.276 333.608001,101.522 333.851001,100.955 C334.337001,99.713 335.309001,97.391 337.172001,92.666 C337.442001,91.991 338.144001,91.613 338.846001,91.613 C339.899001,91.613 340.385001,91.991 340.655001,92.72 C341.492001,94.691 343.004001,98.714 344.219001,101.738 C344.327001,101.981 344.489001,102.305 344.597001,102.575 C345.596001,105.086 346.190001,106.517 346.811001,107.921 C346.946001,108.218 347.054001,108.515 347.054001,108.893 C347.054001,109.46 346.352001,110.135 345.407001,110.135 C344.597001,110.135 344.246001,109.838 343.922001,109.082 C343.085001,106.949 342.572001,105.626 342.518001,105.383 C341.573001,105.356 339.791001,105.356 337.847001,105.356 L335.201001,105.356 C334.958001,105.923 334.310001,107.732 333.851001,108.866 C333.554001,109.595 333.257001,110.108 332.447001,110.108 C331.637001,110.108 330.719001,109.73 330.719001,108.704 Z M338.900001,95.258 C338.225001,97.256 336.983001,100.469 336.038001,102.98 C337.334001,102.98 339.413001,102.98 341.627001,102.926 C341.114001,101.495 339.440001,96.824 338.900001,95.258 Z M351.285001,98.606 C351.285001,97.769 351.258001,96.176 351.231001,95.366 C351.231001,94.556 351.150001,93.611 351.285001,92.882 C351.474001,92.18 352.041001,91.748 352.851001,91.694 C353.688001,91.613 355.551001,91.613 357.009001,91.586 C358.737001,91.586 360.384001,91.964 361.653001,92.801 C363.165001,93.8 364.056001,95.366 364.029001,97.661 C363.975001,100.226 362.247001,102.791 359.601001,103.412 C358.683001,103.655 356.442001,103.655 355.119001,103.655 L354.255001,103.655 C354.255001,105.302 354.309001,106.895 354.309001,108.812 C354.309001,109.784 353.607001,110.162 352.743001,110.162 C351.771001,110.162 351.231001,109.676 351.231001,108.92 C351.258001,105.518 351.258001,102.305 351.285001,98.606 Z M354.282001,98.714 C354.282001,99.443 354.309001,100.172 354.309001,100.955 L355.605001,100.955 C356.982001,100.982 358.035001,100.955 358.764001,100.766 C360.249001,100.415 361.059001,98.903 361.086001,97.499 C361.113001,96.095 360.438001,95.231 359.574001,94.772 C358.791001,94.367 357.927001,94.259 356.847001,94.259 C356.280001,94.259 354.822001,94.259 354.255001,94.286 C354.255001,95.312 354.282001,96.986 354.282001,98.714 Z M382.894001,100.982 C382.921001,97.445 382.921001,96.014 382.921001,93.017 C382.921001,92.045 382.381001,91.559 381.436001,91.559 C380.518001,91.559 379.924001,91.964 379.897001,93.044 C379.897001,94.664 379.924001,97.526 379.924001,99.794 L378.547001,99.821 C377.089001,99.821 375.334001,99.848 373.903001,99.848 C372.337001,99.848 371.689001,99.821 371.311001,99.821 C371.284001,95.528 371.311001,94.475 371.284001,92.801 C371.284001,91.991 370.636001,91.64 369.826001,91.64 C368.800001,91.64 368.233001,92.072 368.233001,93.017 L368.341001,99.2 C368.395001,102.413 368.287001,105.653 368.287001,108.866 C368.287001,109.784 368.935001,110.135 369.772001,110.135 C370.636001,110.135 371.365001,109.784 371.365001,108.893 L371.311001,102.575 C374.227001,102.575 377.143001,102.521 379.897001,102.521 L379.924001,106.544 L379.924001,108.812 C379.924001,109.703 380.545001,110.135 381.436001,110.135 C382.435001,110.135 383.002001,109.757 383.002001,108.812 L382.894001,100.982 Z M393.254001,102.872 C393.254001,104.087 393.227001,104.951 393.227001,106.652 C393.227001,107.3 393.200001,108.002 393.200001,108.623 C393.200001,109.514 393.821001,110.081 394.712001,110.081 C395.495001,110.081 396.224001,109.649 396.224001,108.812 L396.224001,102.818 C397.979001,100.145 400.004001,97.04 402.029001,93.989 C402.272001,93.638 402.434001,93.26 402.434001,92.909 C402.434001,92.207 401.651001,91.586 400.922001,91.586 C400.355001,91.586 399.950001,91.883 399.599001,92.45 C395.792001,98.579 395.171001,99.659 394.793001,100.199 C393.551001,98.282 391.445001,94.799 389.960001,92.477 C389.582001,91.91 389.177001,91.613 388.691001,91.613 C387.881001,91.613 387.098001,92.234 387.098001,93.044 C387.098001,93.368 387.314001,93.773 387.530001,94.097 C388.691001,95.879 391.634001,100.388 392.957001,102.386 L393.254001,102.872 Z" id="REAL-ESTATE-PHOTOGRA" fill="#484848"></path>
            <path d="M86.448,56.392 L86.384,66.12 C86.384,68.872 86.448,71.56 86.64,74.312 C86.64,76.616 84.848,77.256 82.992,77.256 C80.88,77.256 80.304,75.656 79.856,72.328 C77.936,75.656 74.608,77.448 70.448,77.448 C61.936,77.448 56.56,71.048 56.56,63.24 C56.56,53.896 62.96,47.432 71.28,47.432 C74.864,47.432 78.064,49.032 79.984,51.912 C80.112,51.144 80.24,50.12 80.368,49.544 C80.816,48.328 81.712,47.56 83.184,47.56 C85.744,47.56 86.512,49.032 86.512,51.464 L86.448,56.392 Z M63.664,63.048 C63.664,67.912 67.056,71.432 71.344,71.432 C76.08,71.432 79.728,67.848 79.728,62.408 C79.728,56.584 75.824,53.448 71.664,53.448 C67.056,53.448 63.664,57.352 63.664,63.048 Z M97.2436592,57.16 C97.3076592,66.568 97.1156592,70.408 97.1156592,74.248 C97.1156592,76.616 98.6516592,77.32 100.635659,77.32 C102.235659,77.32 104.155659,76.616 104.155659,74.312 L104.091659,64.264 C104.091659,58.312 105.179659,53.32 111.835659,53.384 C116.699659,53.384 117.595659,57.48 117.659659,61.832 C117.659659,65.864 117.467659,70.472 117.467659,74.12 C117.467659,76.232 118.939659,77.192 120.795659,77.192 C123.227659,77.192 124.571659,76.168 124.571659,73.608 L124.571659,68.104 C124.571659,63.816 124.635659,62.472 124.635659,59.848 C124.635659,51.912 120.667659,47.24 113.563659,47.24 C109.595659,47.24 105.499659,49.288 104.027659,52.808 L103.899659,50.568 C103.707659,48.456 102.939659,47.432 100.763659,47.432 C98.0116592,47.432 97.1156592,48.904 97.1796592,51.528 L97.2436592,57.16 Z M149.511318,47.176 C150.215318,47.176 150.855318,47.24 151.431318,47.56 C159.623318,48.776 163.271318,55.752 163.271318,62.408 C163.271318,71.176 156.615318,77.576 147.719318,77.576 C139.975318,77.576 133.191318,71.816 133.191318,63.304 C133.191318,53.768 139.399318,47.304 149.511318,47.176 Z M156.295318,62.152 C156.295318,57.48 153.415318,53.576 148.231318,53.32 C143.367318,53.576 140.167318,57.224 140.167318,63.304 C140.167318,68.168 143.943318,71.432 147.591318,71.432 C152.135318,71.432 156.295318,67.848 156.295318,62.152 Z M172.530978,50.824 C172.530978,53.064 172.594978,55.432 172.594978,57.608 C172.594978,62.152 172.466978,68.424 172.402978,73.352 C172.338978,76.36 173.618978,77.256 175.794978,77.256 C177.842978,77.256 179.314978,76.424 179.378978,74.312 C179.442978,70.728 179.314978,67.208 179.314978,64.008 C179.314978,57.608 182.834978,53.896 187.058978,53.896 L188.146978,53.896 C190.194978,53.896 191.026978,52.232 191.026978,50.568 C191.026978,48.2 189.874978,47.24 187.634978,47.24 C184.434978,47.24 180.786978,49.288 178.930978,53.32 L178.674978,49.8 C178.418978,48.264 177.458978,47.496 175.986978,47.496 C173.810978,47.496 172.466978,48.584 172.530978,50.824 Z M225.374637,56.392 L225.310637,66.12 C225.310637,68.872 225.374637,71.56 225.566637,74.312 C225.566637,76.616 223.774637,77.256 221.918637,77.256 C219.806637,77.256 219.230637,75.656 218.782637,72.328 C216.862637,75.656 213.534637,77.448 209.374637,77.448 C200.862637,77.448 195.486637,71.048 195.486637,63.24 C195.486637,53.896 201.886637,47.432 210.206637,47.432 C213.790637,47.432 216.990637,49.032 218.910637,51.912 C219.038637,51.144 219.166637,50.12 219.294637,49.544 C219.742637,48.328 220.638637,47.56 222.110637,47.56 C224.670637,47.56 225.438637,49.032 225.438637,51.464 L225.374637,56.392 Z M202.590637,63.048 C202.590637,67.912 205.982637,71.432 210.270637,71.432 C215.006637,71.432 218.654637,67.848 218.654637,62.408 C218.654637,56.584 214.750637,53.448 210.590637,53.448 C205.982637,53.448 202.590637,57.352 202.590637,63.048 Z M256.970296,49.288 C254.538296,47.752 251.786296,47.24 249.290296,47.24 C240.074296,47.24 234.186296,55.368 234.122296,63.368 C234.122296,69.768 238.858296,77.576 248.778296,77.576 C253.130296,77.576 255.818296,76.36 257.802296,74.824 C258.570296,74.312 259.018296,73.416 259.018296,72.52 C259.018296,70.92 257.802296,69 256.202296,69 C255.242296,69 254.410296,69.576 253.642296,69.96 C252.426296,70.664 251.146296,71.24 248.842296,71.24 C244.362296,71.24 241.098296,67.592 241.098296,62.728 C241.098296,58.568 244.234296,53.576 249.034296,53.576 C250.570296,53.576 251.722296,53.832 252.746296,54.28 C253.386296,54.6 254.474296,55.176 255.498296,55.176 C257.290296,55.176 258.378296,53.32 258.378296,51.848 C258.378296,50.696 257.930296,49.928 256.970296,49.288 Z M265.973955,53.832 L269.493955,53.832 C269.557955,57.736 269.365955,62.024 269.365955,65.928 C269.365955,74.056 272.757955,77.384 278.837955,77.384 C281.333955,77.384 282.357955,77.128 283.637955,76.424 C284.533955,75.912 285.045955,75.08 285.045955,73.544 C285.045955,72.136 284.149955,70.6 282.485955,70.6 C281.461955,70.6 281.077955,71.112 279.541955,71.112 C276.917955,71.112 276.149955,68.872 276.149955,65.032 L276.149955,53.768 L281.909955,53.768 C283.765955,53.768 284.597955,52.488 284.597955,50.76 C284.597955,48.776 283.509955,47.752 281.653955,47.816 L276.149955,47.816 C276.149955,45.832 276.277955,43.592 276.277955,42.184 C276.277955,40.136 275.509955,38.984 273.397955,38.984 C270.581955,38.984 269.685955,41.032 269.621955,43.208 L269.493955,47.88 L266.229955,47.88 C264.437955,47.88 263.221955,49.032 263.221955,50.888 C263.221955,52.68 264.053955,53.832 265.973955,53.832 Z M293.025614,50.632 L293.025614,74.312 C293.025614,76.36 294.497614,77.32 296.481614,77.32 C298.785614,77.32 300.129614,76.232 300.065614,73.864 L300.065614,65.864 C300.001614,61.064 300.129614,56.136 300.065614,51.336 C300.065614,48.2 298.529614,47.432 296.417614,47.432 C294.881614,47.432 293.153614,48.264 293.025614,50.632 Z M296.289614,39.816 C298.977614,39.816 301.153614,38.536 301.153614,35.592 C301.153614,33.16 299.681614,31.24 296.801614,31.24 C294.753614,31.24 292.577614,32.456 292.193614,35.016 C291.873614,37.704 293.601614,39.816 296.289614,39.816 Z M309.453274,53.96 C312.141274,59.848 314.445274,65.032 318.157274,73.48 C319.373274,76.104 320.525274,77.32 322.765274,77.32 C324.941274,77.32 326.157274,76.36 327.309274,73.992 C331.085274,65.928 335.117274,56.648 336.717274,53.256 C337.165274,52.232 337.421274,51.4 337.421274,50.248 C337.357274,48.584 335.373274,47.496 333.645274,47.496 C332.045274,47.496 331.021274,48.584 330.381274,50.248 C328.717274,54.856 325.325274,63.432 322.893274,69.064 C320.653274,63.624 317.773274,56.136 315.533274,50.632 C314.765274,48.584 313.997274,47.368 312.077274,47.368 C310.349274,47.368 308.365274,48.456 308.301274,50.376 C308.237274,51.528 308.749274,52.36 309.453274,53.96 Z M350.328933,64.2 C350.584933,68.04 353.784933,71.24 358.136933,71.24 C360.504933,71.24 362.744933,70.472 364.344933,69.512 C365.112933,69.064 365.880933,68.68 366.840933,68.68 C368.376933,68.68 369.784933,70.28 369.784933,72.008 C369.784933,73.224 369.016933,74.184 367.864933,74.952 C365.496933,76.488 362.488933,77.512 357.560933,77.512 C349.624933,77.512 343.352933,71.176 343.224933,63.432 C343.224933,54.472 349.624933,47.24 357.944933,47.24 C365.432933,47.24 370.872933,53.128 370.872933,59.016 C370.872933,62.344 370.360933,64.008 365.880933,64.072 C362.296933,64.2 357.944933,64.136 350.328933,64.2 Z M358.072933,52.936 C353.784933,52.936 350.776933,56.328 350.392933,59.72 C353.720933,59.72 360.760933,59.656 363.448933,59.464 C363.896933,59.4 364.216933,59.208 364.216933,58.888 C364.216933,55.368 361.272933,52.936 358.072933,52.936 Z M390.564592,47.304 C384.548592,47.304 378.788592,51.144 378.788592,56.776 C378.788592,62.536 384.356592,63.88 389.476592,64.584 C393.444592,65.16 395.684592,65.8 395.684592,68.232 C395.684592,70.536 393.380592,71.752 390.564592,71.752 C386.084592,71.752 383.652592,69.896 381.284592,69.896 C379.236592,69.896 378.532592,71.56 378.532592,73.352 C378.532592,75.592 384.292592,77.512 389.924592,77.512 C397.348592,77.512 402.084592,74.056 402.084592,68.04 C402.084592,62.152 397.412592,60.232 391.268592,59.4 C388.068592,58.952 385.188592,58.76 385.188592,56.392 C385.188592,54.216 387.684592,52.808 390.628592,52.808 C394.276592,52.808 396.516592,54.28 398.372592,54.28 C400.292592,54.28 401.124592,53.064 401.124592,51.272 C401.124592,49.992 400.228592,49.288 399.140592,48.776 C397.220592,47.88 394.212592,47.304 390.564592,47.304 Z" id="anoractives" fill="#484848"></path>
            <g id="P-(inline,-large)" transform="translate(20.000000, 16.000000)" stroke="#00BDEE" stroke-linecap="round">
                <path d="M0.321176677,54.6843283 L0.321176678,0.645119852 C0.321176678,0.645119852 7.59589046,-0.517781621 15.3661528,0.279071645 C18.655742,0.616424461 22.0341486,1.30502514 24.9869807,2.58181572 C30.23097,4.84929182 33.6613847,10.3699406 33.6786901,15.4720889 C33.7287573,30.2333594 19.6467039,31.6230943 19.6467039,31.6230943 L13.3602629,31.8119238" id="Path-5" stroke-width="9"></path>
                <g id="Line-+-Line-Copy-3" stroke-width="1" fill-rule="evenodd" transform="translate(12.823531, 32.173222) rotate(-270.000000) translate(-12.823531, -32.173222) translate(4.823531, 28.173222)" stroke-linejoin="round">
                    <path d="M7.54249058,7.17061771 L0.337413699,0.110212902 L0.224942466,-1.77635684e-15 L-1.77635684e-15,0.220425805 L0.112471233,0.330638707 L7.31754811,7.39104351 L7.31668379,7.39189049 L7.54162625,7.61231629 L7.54249058,7.61146932 L7.54335491,7.61231629 L7.76829738,7.39189049 L7.76743305,7.39104351 L14.9725099,0.330638707 L15.0849812,0.220425805 L14.8600387,-1.77635684e-15 L14.7475675,0.110212902 L7.54249058,7.17061771 Z" id="Line" stroke-width="6"></path>
                </g>
            </g>
        </g>
    </g>
</svg>